<svg xmlns="http://www.w3.org/2000/svg" viewBox="0 0 64 64">
  <defs>
    <linearGradient id="grad" x1="0%" y1="0%" x2="100%" y2="100%">
      <stop offset="0%" style="stop-color:#01c131;stop-opacity:1" />
      <stop offset="50%" style="stop-color:#00befe;stop-opacity:1" />
      <stop offset="100%" style="stop-color:#9400fe;stop-opacity:1" />
    </linearGradient>
  </defs>
  <rect width="64" height="64" fill="#ffffff" rx="12"/>
  <g fill="url(#grad)">
    <rect x="8" y="8" width="11" height="11" rx="2"/>
    <rect x="22" y="8" width="11" height="11" rx="2"/>
    <rect x="36" y="8" width="11" height="11" rx="2"/>
    <rect x="50" y="8" width="6" height="11" rx="2"/>
    <rect x="8" y="22" width="11" height="11" rx="2"/>
    <rect x="22" y="22" width="11" height="11" rx="2"/>
    <rect x="36" y="22" width="11" height="11" rx="2"/>
    <rect x="50" y="22" width="6" height="11" rx="2"/>
    <rect x="8" y="36" width="11" height="11" rx="2"/>
    <rect x="22" y="36" width="11" height="11" rx="2"/>
    <rect x="36" y="36" width="11" height="11" rx="2"/>
    <rect x="50" y="36" width="6" height="11" rx="2"/>
    <rect x="8" y="50" width="11" height="6" rx="2"/>
    <rect x="22" y="50" width="11" height="6" rx="2"/>
    <rect x="36" y="50" width="11" height="6" rx="2"/>
    <rect x="50" y="50" width="6" height="6" rx="2"/>
  </g>
</svg>
